<mxfile host="app.diagrams.net" modified="2022-07-03T14:25:59.457Z" agent="5.0 (Windows NT 10.0; Win64; x64) AppleWebKit/537.36 (KHTML, like Gecko) Chrome/103.0.5060.66 Safari/537.36" etag="md2W64IY05e-yVQwoW8Q" version="20.0.3" type="github">
  <diagram id="aAs1xrY6FZ-xVClBCgRO" name="Page-1">
    <mxGraphModel dx="1831" dy="557" grid="1" gridSize="10" guides="1" tooltips="1" connect="1" arrows="1" fold="1" page="1" pageScale="1" pageWidth="850" pageHeight="1100" math="0" shadow="0">
      <root>
        <mxCell id="0" />
        <mxCell id="1" parent="0" />
        <mxCell id="ii30MXy9ZIumx1q9ZOWN-1" value="MyUKM Application" style="shape=umlFrame;whiteSpace=wrap;html=1;width=130;height=30;" parent="1" vertex="1">
          <mxGeometry x="160" y="80" width="670" height="870" as="geometry" />
        </mxCell>
        <mxCell id="ii30MXy9ZIumx1q9ZOWN-2" value="UC-1 Register" style="ellipse;whiteSpace=wrap;html=1;" parent="1" vertex="1">
          <mxGeometry x="240" y="150" width="140" height="70" as="geometry" />
        </mxCell>
        <mxCell id="ii30MXy9ZIumx1q9ZOWN-3" value="UC-2 Login" style="ellipse;whiteSpace=wrap;html=1;" parent="1" vertex="1">
          <mxGeometry x="245" y="240" width="140" height="70" as="geometry" />
        </mxCell>
        <mxCell id="ii30MXy9ZIumx1q9ZOWN-12" style="rounded=0;orthogonalLoop=1;jettySize=auto;html=1;entryX=0;entryY=0.5;entryDx=0;entryDy=0;endArrow=none;endFill=0;" parent="1" source="ii30MXy9ZIumx1q9ZOWN-5" target="ii30MXy9ZIumx1q9ZOWN-2" edge="1">
          <mxGeometry relative="1" as="geometry" />
        </mxCell>
        <mxCell id="ii30MXy9ZIumx1q9ZOWN-13" style="edgeStyle=none;rounded=0;orthogonalLoop=1;jettySize=auto;html=1;entryX=0;entryY=0.5;entryDx=0;entryDy=0;endArrow=none;endFill=0;" parent="1" source="ii30MXy9ZIumx1q9ZOWN-5" target="ii30MXy9ZIumx1q9ZOWN-3" edge="1">
          <mxGeometry relative="1" as="geometry" />
        </mxCell>
        <mxCell id="ii30MXy9ZIumx1q9ZOWN-24" style="edgeStyle=none;rounded=0;orthogonalLoop=1;jettySize=auto;html=1;endArrow=none;endFill=0;" parent="1" source="ii30MXy9ZIumx1q9ZOWN-5" target="ii30MXy9ZIumx1q9ZOWN-17" edge="1">
          <mxGeometry relative="1" as="geometry" />
        </mxCell>
        <mxCell id="ii30MXy9ZIumx1q9ZOWN-30" style="edgeStyle=none;rounded=0;orthogonalLoop=1;jettySize=auto;html=1;entryX=0;entryY=0.5;entryDx=0;entryDy=0;endArrow=none;endFill=0;" parent="1" source="ii30MXy9ZIumx1q9ZOWN-5" target="ii30MXy9ZIumx1q9ZOWN-27" edge="1">
          <mxGeometry relative="1" as="geometry" />
        </mxCell>
        <mxCell id="ii30MXy9ZIumx1q9ZOWN-31" style="edgeStyle=none;rounded=0;orthogonalLoop=1;jettySize=auto;html=1;entryX=0;entryY=0.5;entryDx=0;entryDy=0;endArrow=none;endFill=0;" parent="1" source="ii30MXy9ZIumx1q9ZOWN-5" target="ii30MXy9ZIumx1q9ZOWN-28" edge="1">
          <mxGeometry relative="1" as="geometry" />
        </mxCell>
        <mxCell id="ii30MXy9ZIumx1q9ZOWN-5" value="&lt;font style=&quot;font-size: 16px;&quot;&gt;User&lt;/font&gt;" style="shape=umlActor;verticalLabelPosition=bottom;verticalAlign=top;html=1;outlineConnect=0;" parent="1" vertex="1">
          <mxGeometry x="-130" y="360" width="70" height="120" as="geometry" />
        </mxCell>
        <mxCell id="ii30MXy9ZIumx1q9ZOWN-6" value="UC-3 Make medical appoinment&lt;br&gt;&lt;br&gt;if want to cancel = yes" style="ellipse;whiteSpace=wrap;html=1;" parent="1" vertex="1">
          <mxGeometry x="240" y="330" width="190" height="100" as="geometry" />
        </mxCell>
        <mxCell id="ii30MXy9ZIumx1q9ZOWN-7" value="UC-4 Cancel medical appoinment" style="ellipse;whiteSpace=wrap;html=1;" parent="1" vertex="1">
          <mxGeometry x="600" y="350" width="125" height="70" as="geometry" />
        </mxCell>
        <mxCell id="ii30MXy9ZIumx1q9ZOWN-8" value="" style="endArrow=none;html=1;rounded=0;entryX=0;entryY=0.5;entryDx=0;entryDy=0;endFill=0;" parent="1" source="ii30MXy9ZIumx1q9ZOWN-5" target="ii30MXy9ZIumx1q9ZOWN-6" edge="1">
          <mxGeometry width="50" height="50" relative="1" as="geometry">
            <mxPoint x="70" y="590" as="sourcePoint" />
            <mxPoint x="370" y="680" as="targetPoint" />
          </mxGeometry>
        </mxCell>
        <mxCell id="ii30MXy9ZIumx1q9ZOWN-9" value="" style="endArrow=classic;html=1;rounded=0;" parent="1" source="ii30MXy9ZIumx1q9ZOWN-6" target="ii30MXy9ZIumx1q9ZOWN-7" edge="1">
          <mxGeometry width="50" height="50" relative="1" as="geometry">
            <mxPoint x="70" y="600" as="sourcePoint" />
            <mxPoint x="260" y="520" as="targetPoint" />
          </mxGeometry>
        </mxCell>
        <mxCell id="ii30MXy9ZIumx1q9ZOWN-10" value="&amp;lt;&amp;lt;extend&amp;gt;&amp;gt;" style="text;html=1;strokeColor=none;fillColor=none;align=center;verticalAlign=middle;whiteSpace=wrap;rounded=0;" parent="1" vertex="1">
          <mxGeometry x="480" y="350" width="60" height="30" as="geometry" />
        </mxCell>
        <mxCell id="ii30MXy9ZIumx1q9ZOWN-11" value="" style="endArrow=none;html=1;rounded=0;exitX=0;exitY=0.5;exitDx=0;exitDy=0;entryX=1;entryY=0.5;entryDx=0;entryDy=0;" parent="1" source="ii30MXy9ZIumx1q9ZOWN-6" target="ii30MXy9ZIumx1q9ZOWN-6" edge="1">
          <mxGeometry width="50" height="50" relative="1" as="geometry">
            <mxPoint x="320" y="710" as="sourcePoint" />
            <mxPoint x="370" y="660" as="targetPoint" />
          </mxGeometry>
        </mxCell>
        <mxCell id="ii30MXy9ZIumx1q9ZOWN-17" value="UC-5 Search Book" style="ellipse;whiteSpace=wrap;html=1;" parent="1" vertex="1">
          <mxGeometry x="220" y="465" width="120" height="80" as="geometry" />
        </mxCell>
        <mxCell id="ii30MXy9ZIumx1q9ZOWN-18" style="rounded=0;orthogonalLoop=1;jettySize=auto;html=1;" parent="1" source="ii30MXy9ZIumx1q9ZOWN-19" target="ii30MXy9ZIumx1q9ZOWN-17" edge="1">
          <mxGeometry relative="1" as="geometry" />
        </mxCell>
        <mxCell id="pIL9aRCwVPGoARK6K9g6-3" style="edgeStyle=none;rounded=0;orthogonalLoop=1;jettySize=auto;html=1;endArrow=classic;endFill=1;" edge="1" parent="1" source="ii30MXy9ZIumx1q9ZOWN-19" target="ii30MXy9ZIumx1q9ZOWN-21">
          <mxGeometry relative="1" as="geometry" />
        </mxCell>
        <mxCell id="ii30MXy9ZIumx1q9ZOWN-19" value="&lt;font style=&quot;font-size: 12px;&quot;&gt;UC-6 Reserve Book&lt;br&gt;----------------------------&lt;br&gt;If cancel reservation = yes&amp;nbsp;&lt;/font&gt;" style="ellipse;whiteSpace=wrap;html=1;" parent="1" vertex="1">
          <mxGeometry x="430" y="460" width="140" height="90" as="geometry" />
        </mxCell>
        <mxCell id="ii30MXy9ZIumx1q9ZOWN-20" value="&lt;&lt;include&gt;&gt;" style="text;strokeColor=none;fillColor=none;align=left;verticalAlign=middle;spacingLeft=4;spacingRight=4;overflow=hidden;points=[[0,0.5],[1,0.5]];portConstraint=eastwest;rotatable=0;" parent="1" vertex="1">
          <mxGeometry x="350" y="475" width="80" height="30" as="geometry" />
        </mxCell>
        <mxCell id="ii30MXy9ZIumx1q9ZOWN-21" value="UC-7 Cancel&amp;nbsp;reservation" style="ellipse;whiteSpace=wrap;html=1;" parent="1" vertex="1">
          <mxGeometry x="670" y="465" width="120" height="80" as="geometry" />
        </mxCell>
        <mxCell id="ii30MXy9ZIumx1q9ZOWN-22" value="&lt;&lt;extend&gt;&gt;" style="text;strokeColor=none;fillColor=none;align=left;verticalAlign=middle;spacingLeft=4;spacingRight=4;overflow=hidden;points=[[0,0.5],[1,0.5]];portConstraint=eastwest;rotatable=0;" parent="1" vertex="1">
          <mxGeometry x="580" y="475" width="80" height="30" as="geometry" />
        </mxCell>
        <mxCell id="BCYx-CZs96L0OzBnz8b9-4" style="rounded=0;orthogonalLoop=1;jettySize=auto;html=1;endArrow=none;endFill=0;" parent="1" source="ii30MXy9ZIumx1q9ZOWN-27" target="BCYx-CZs96L0OzBnz8b9-1" edge="1">
          <mxGeometry relative="1" as="geometry" />
        </mxCell>
        <mxCell id="ii30MXy9ZIumx1q9ZOWN-27" value="&lt;div&gt;UC-8 Make Payment&lt;/div&gt;" style="ellipse;whiteSpace=wrap;html=1;" parent="1" vertex="1">
          <mxGeometry x="260" y="580" width="170" height="90" as="geometry" />
        </mxCell>
        <mxCell id="pIL9aRCwVPGoARK6K9g6-1" style="rounded=0;orthogonalLoop=1;jettySize=auto;html=1;endArrow=none;endFill=0;" edge="1" parent="1" source="ii30MXy9ZIumx1q9ZOWN-28" target="BCYx-CZs96L0OzBnz8b9-1">
          <mxGeometry relative="1" as="geometry" />
        </mxCell>
        <mxCell id="ii30MXy9ZIumx1q9ZOWN-28" value="UC-9 Reload account" style="ellipse;whiteSpace=wrap;html=1;" parent="1" vertex="1">
          <mxGeometry x="300" y="790" width="140" height="70" as="geometry" />
        </mxCell>
        <mxCell id="ii30MXy9ZIumx1q9ZOWN-33" value="&amp;lt;&amp;lt;include&amp;gt;&amp;gt;" style="text;html=1;strokeColor=none;fillColor=none;align=center;verticalAlign=middle;whiteSpace=wrap;rounded=0;" parent="1" vertex="1">
          <mxGeometry x="395" y="670" width="60" height="30" as="geometry" />
        </mxCell>
        <mxCell id="Z8KCSFrK7pHUTEjQrscm-3" style="rounded=0;orthogonalLoop=1;jettySize=auto;html=1;" parent="1" source="ii30MXy9ZIumx1q9ZOWN-39" target="ii30MXy9ZIumx1q9ZOWN-28" edge="1">
          <mxGeometry relative="1" as="geometry" />
        </mxCell>
        <mxCell id="pIL9aRCwVPGoARK6K9g6-2" style="edgeStyle=none;rounded=0;orthogonalLoop=1;jettySize=auto;html=1;entryX=0.5;entryY=1;entryDx=0;entryDy=0;endArrow=classic;endFill=1;" edge="1" parent="1" source="ii30MXy9ZIumx1q9ZOWN-39" target="ii30MXy9ZIumx1q9ZOWN-27">
          <mxGeometry relative="1" as="geometry" />
        </mxCell>
        <mxCell id="ii30MXy9ZIumx1q9ZOWN-39" value="&lt;div&gt;UC-10Validate Balance&lt;/div&gt;&lt;div&gt;&lt;br&gt;&lt;/div&gt;&lt;div&gt;if amount &amp;gt; balance&lt;/div&gt;" style="ellipse;whiteSpace=wrap;html=1;" parent="1" vertex="1">
          <mxGeometry x="425" y="690" width="180" height="90" as="geometry" />
        </mxCell>
        <mxCell id="BCYx-CZs96L0OzBnz8b9-1" value="&lt;font style=&quot;font-size: 16px;&quot;&gt;Payment Gateway&lt;/font&gt;" style="shape=umlActor;verticalLabelPosition=bottom;verticalAlign=top;html=1;outlineConnect=0;" parent="1" vertex="1">
          <mxGeometry x="950" y="670" width="70" height="120" as="geometry" />
        </mxCell>
        <mxCell id="BCYx-CZs96L0OzBnz8b9-7" value="&amp;lt;&amp;lt;extend&amp;gt;&amp;gt;" style="text;html=1;strokeColor=none;fillColor=none;align=center;verticalAlign=middle;whiteSpace=wrap;rounded=0;" parent="1" vertex="1">
          <mxGeometry x="430" y="780" width="60" height="30" as="geometry" />
        </mxCell>
        <mxCell id="Z8KCSFrK7pHUTEjQrscm-4" value="" style="endArrow=none;html=1;rounded=0;exitX=0;exitY=0.5;exitDx=0;exitDy=0;entryX=1;entryY=0.5;entryDx=0;entryDy=0;" parent="1" target="ii30MXy9ZIumx1q9ZOWN-39" edge="1">
          <mxGeometry width="50" height="50" relative="1" as="geometry">
            <mxPoint x="425" y="734.75" as="sourcePoint" />
            <mxPoint x="595" y="735.25" as="targetPoint" />
          </mxGeometry>
        </mxCell>
      </root>
    </mxGraphModel>
  </diagram>
</mxfile>
